<?xml version="1.0" encoding="utf-8"?>
<!-- Generator: Adobe Illustrator 26.2.1, SVG Export Plug-In . SVG Version: 6.00 Build 0)  -->
<svg version="1.1" id="Layer_1" xmlns="http://www.w3.org/2000/svg" xmlns:xlink="http://www.w3.org/1999/xlink" x="0px" y="0px"
	 viewBox="0 0 1200 1200" style="enable-background:new 0 0 1200 1200;" xml:space="preserve">
<style type="text/css">
	.st0{fill:none;}
	.st1{clip-path:url(#SVGID_00000160176876747454570880000001432361477947314321_);fill:none;}
	.st2{clip-path:url(#SVGID_00000034796287110321748440000009649276928420171964_);fill:none;}
	.st3{clip-path:url(#SVGID_00000057864925551043310750000007088516313486892978_);fill:#579789;}
	.st4{clip-path:url(#SVGID_00000090972838402666787990000000210905898210612107_);fill:#579789;}
	.st5{clip-path:url(#SVGID_00000111172379392272271200000005676636644608343724_);fill:#579789;}
	.st6{clip-path:url(#SVGID_00000154412472541607507280000003251259942057199001_);fill:#579789;}
	.st7{clip-path:url(#SVGID_00000034088738104759385150000005274733664542587530_);fill:#579789;}
	.st8{clip-path:url(#SVGID_00000156564686944377150010000017652825310305374349_);fill:#579789;}
	.st9{clip-path:url(#SVGID_00000145765179881341563310000014071214011507210171_);fill:#579789;}
	.st10{clip-path:url(#SVGID_00000136396041583088824150000005033916333843211441_);fill:none;}
	.st11{clip-path:url(#SVGID_00000116213405421164731580000010774937103147384994_);fill:none;}
	.st12{clip-path:url(#SVGID_00000134966613165196624540000003155441588106313613_);fill:#579789;}
	.st13{clip-path:url(#SVGID_00000147918998936693214310000003821950267567622559_);fill:#579789;}
	.st14{clip-path:url(#SVGID_00000030478628681099371550000010976553275950154668_);fill:#579789;}
	.st15{clip-path:url(#SVGID_00000106143059927814095890000007320913596460622999_);fill:#579789;}
	.st16{clip-path:url(#SVGID_00000145041326393833695780000007043798346266190000_);fill:#579789;}
	.st17{clip-path:url(#SVGID_00000167365525992919721850000001232697204673267644_);fill:#579789;}
	.st18{clip-path:url(#SVGID_00000148623082099875767850000002221121779358004414_);fill:#579789;}
	.st19{clip-path:url(#SVGID_00000023276310244575665610000010170337084849398434_);fill:none;}
	.st20{clip-path:url(#SVGID_00000158023670820965960080000008961260927175271041_);fill:none;}
	.st21{clip-path:url(#SVGID_00000092450781425557733130000015316126642114343041_);fill:#579789;}
	.st22{clip-path:url(#SVGID_00000134215036091979452750000000414735459497719719_);fill:#579789;}
	.st23{clip-path:url(#SVGID_00000155868433492899488990000010758189733260074385_);fill:#579789;}
	.st24{clip-path:url(#SVGID_00000183220036327235719790000014551093430223779210_);fill:#579789;}
	.st25{clip-path:url(#SVGID_00000098922446879871966830000008422744995760636549_);fill:#579789;}
	.st26{clip-path:url(#SVGID_00000046303510442654561010000002356149070717522844_);fill:#579789;}
	.st27{clip-path:url(#SVGID_00000171692913163894891850000007063697883540373141_);fill:#579789;}
	.st28{clip-path:url(#SVGID_00000043429353736145899780000012839897286254713758_);fill:none;}
	.st29{clip-path:url(#SVGID_00000031178831497923971480000005566962192124330642_);fill:none;}
	.st30{clip-path:url(#SVGID_00000015325348284148933210000016703086858504631737_);fill:#579789;}
	.st31{clip-path:url(#SVGID_00000070100968280281380100000015982452392234706834_);fill:#579789;}
	.st32{clip-path:url(#SVGID_00000176765056436420769680000000364578992357469077_);fill:#579789;}
	.st33{clip-path:url(#SVGID_00000115504994809535479510000001514519394084832650_);fill:#579789;}
	.st34{clip-path:url(#SVGID_00000062151450465309088460000005443375412333602734_);fill:#579789;}
	.st35{clip-path:url(#SVGID_00000119803819517945524510000016298786053332358031_);fill:#579789;}
	.st36{clip-path:url(#SVGID_00000008136994972919879490000000277273002409915047_);fill:#579789;}
	.st37{fill:#FDFDFD;}
	.st38{opacity:0.4;fill:#A79F9D;enable-background:new    ;}
	.st39{fill:url(#SVGID_00000117644078794413007570000000755304945003943048_);}
	.st40{fill:none;stroke:#000000;stroke-width:2;stroke-linecap:round;stroke-linejoin:round;}
	.st41{fill:none;stroke:#000000;stroke-width:2.09;stroke-linecap:round;stroke-linejoin:round;}
	.st42{fill:url(#SVGID_00000062872269049342665570000003666275454588217011_);}
	.st43{fill:none;stroke:#000000;stroke-width:2.19;stroke-linecap:round;stroke-linejoin:round;}
	.st44{fill:url(#SVGID_00000183233465291461435990000004577921387039547780_);}
	.st45{fill:none;stroke:#000000;stroke-width:2.45;stroke-linecap:round;stroke-linejoin:round;}
	.st46{fill:url(#SVGID_00000080894410313260756690000000815054410560857260_);}
	.st47{fill:none;stroke:#000000;stroke-width:2.2004;stroke-linecap:round;stroke-linejoin:round;stroke-miterlimit:4.0008;}
</style>
<pattern  y="1200" width="12" height="12" patternUnits="userSpaceOnUse" id="SVGID_0000007659692356916709909" viewBox="2 -14 12 12" style="overflow:visible;">
	<g>
		<rect x="2" y="-14" class="st0" width="12" height="12"/>
		<g>
			<rect x="2" y="-14" class="st0" width="12" height="12"/>
			<g>
				<rect x="2" y="-14" class="st0" width="12" height="12"/>
				<g>
					<rect x="2" y="-14" class="st0" width="12" height="12"/>
					<g>
						<rect x="2" y="-14" class="st0" width="12" height="12"/>
						<g>
							<g>
								<g>
									<g>
										<g>
											<defs>
												<rect id="SVGID_1_" x="2" y="-14" width="12" height="12"/>
											</defs>
											<clipPath id="SVGID_00000139993451198728872790000014402432029008690318_">
												<use xlink:href="#SVGID_1_"  style="overflow:visible;"/>
											</clipPath>
											
												<rect x="2" y="-14" style="clip-path:url(#SVGID_00000139993451198728872790000014402432029008690318_);fill:none;" width="12" height="12"/>
										</g>
									</g>
								</g>
							</g>
							<g>
								<g>
									<g>
										<g>
											<defs>
												<rect id="SVGID_00000154408329477595948370000004767507012339086514_" x="2" y="-14" width="12" height="12"/>
											</defs>
											<clipPath id="SVGID_00000109748742842207600280000010214745551348711867_">
												<use xlink:href="#SVGID_00000154408329477595948370000004767507012339086514_"  style="overflow:visible;"/>
											</clipPath>
											
												<rect x="2" y="-14" style="clip-path:url(#SVGID_00000109748742842207600280000010214745551348711867_);fill:none;" width="12" height="12"/>
										</g>
									</g>
								</g>
							</g>
							<g>
								<g>
									<g>
										<g>
											<defs>
												<rect id="SVGID_00000044864635865721604830000014520784019395127425_" x="2" y="-14" width="12" height="12"/>
											</defs>
											<clipPath id="SVGID_00000042016650478923511840000004747921882367607475_">
												<use xlink:href="#SVGID_00000044864635865721604830000014520784019395127425_"  style="overflow:visible;"/>
											</clipPath>
											
												<circle style="clip-path:url(#SVGID_00000042016650478923511840000004747921882367607475_);fill:#579789;" cx="14" cy="-5" r="2"/>
										</g>
									</g>
								</g>
							</g>
							<g>
								<g>
									<g>
										<g>
											<defs>
												<rect id="SVGID_00000151515131969978624770000013840901031178720934_" x="2" y="-14" width="12" height="12"/>
											</defs>
											<clipPath id="SVGID_00000067934125139982096580000002265203903311430539_">
												<use xlink:href="#SVGID_00000151515131969978624770000013840901031178720934_"  style="overflow:visible;"/>
											</clipPath>
											
												<circle style="clip-path:url(#SVGID_00000067934125139982096580000002265203903311430539_);fill:#579789;" cx="8" cy="-2" r="2"/>
										</g>
									</g>
								</g>
							</g>
							<g>
								<g>
									<g>
										<g>
											<defs>
												<rect id="SVGID_00000013877705184240195150000012639899157095591103_" x="2" y="-14" width="12" height="12"/>
											</defs>
											<clipPath id="SVGID_00000174591759341837657460000012647011675847553685_">
												<use xlink:href="#SVGID_00000013877705184240195150000012639899157095591103_"  style="overflow:visible;"/>
											</clipPath>
											
												<circle style="clip-path:url(#SVGID_00000174591759341837657460000012647011675847553685_);fill:#579789;" cx="2" cy="-5" r="2"/>
										</g>
									</g>
								</g>
							</g>
							<g>
								<g>
									<g>
										<g>
											<defs>
												<rect id="SVGID_00000138557570557395561520000005490045827688643482_" x="2" y="-14" width="12" height="12"/>
											</defs>
											<clipPath id="SVGID_00000026881621671434490660000018271730422818466219_">
												<use xlink:href="#SVGID_00000138557570557395561520000005490045827688643482_"  style="overflow:visible;"/>
											</clipPath>
											
												<circle style="clip-path:url(#SVGID_00000026881621671434490660000018271730422818466219_);fill:#579789;" cx="14" cy="-11" r="2"/>
										</g>
									</g>
								</g>
							</g>
							<g>
								<g>
									<g>
										<g>
											<defs>
												<rect id="SVGID_00000146469181443689156100000015292124684635221418_" x="2" y="-14" width="12" height="12"/>
											</defs>
											<clipPath id="SVGID_00000148637773869872129080000007931536180229302707_">
												<use xlink:href="#SVGID_00000146469181443689156100000015292124684635221418_"  style="overflow:visible;"/>
											</clipPath>
											
												<circle style="clip-path:url(#SVGID_00000148637773869872129080000007931536180229302707_);fill:#579789;" cx="8" cy="-8" r="2"/>
										</g>
									</g>
								</g>
							</g>
							<g>
								<g>
									<g>
										<g>
											<defs>
												<rect id="SVGID_00000168824770061831394410000013840401125310735009_" x="2" y="-14" width="12" height="12"/>
											</defs>
											<clipPath id="SVGID_00000114794409462459436960000018001043333046200999_">
												<use xlink:href="#SVGID_00000168824770061831394410000013840401125310735009_"  style="overflow:visible;"/>
											</clipPath>
											
												<circle style="clip-path:url(#SVGID_00000114794409462459436960000018001043333046200999_);fill:#579789;" cx="2" cy="-11" r="2"/>
										</g>
									</g>
								</g>
							</g>
							<g>
								<g>
									<g>
										<g>
											<defs>
												<rect id="SVGID_00000008121927892597548940000008047010965255176073_" x="2" y="-14" width="12" height="12"/>
											</defs>
											<clipPath id="SVGID_00000035502510425007795150000012161466611181649299_">
												<use xlink:href="#SVGID_00000008121927892597548940000008047010965255176073_"  style="overflow:visible;"/>
											</clipPath>
											
												<circle style="clip-path:url(#SVGID_00000035502510425007795150000012161466611181649299_);fill:#579789;" cx="8" cy="-14" r="2"/>
										</g>
									</g>
								</g>
							</g>
						</g>
					</g>
				</g>
			</g>
		</g>
	</g>
</pattern>
<pattern  y="1200" width="12" height="12" patternUnits="userSpaceOnUse" id="SVGID_0000009099032402958398829" viewBox="2 -14 12 12" style="overflow:visible;">
	<g>
		<rect x="2" y="-14" class="st0" width="12" height="12"/>
		<g>
			<rect x="2" y="-14" class="st0" width="12" height="12"/>
			<g>
				<rect x="2" y="-14" class="st0" width="12" height="12"/>
				<g>
					<rect x="2" y="-14" class="st0" width="12" height="12"/>
					<g>
						<rect x="2" y="-14" class="st0" width="12" height="12"/>
						<g>
							<g>
								<g>
									<g>
										<g>
											<defs>
												<rect id="SVGID_00000039832097396003726680000011193218491636815751_" x="2" y="-14" width="12" height="12"/>
											</defs>
											<clipPath id="SVGID_00000182489820124643864200000004250272586753838227_">
												<use xlink:href="#SVGID_00000039832097396003726680000011193218491636815751_"  style="overflow:visible;"/>
											</clipPath>
											
												<rect x="2" y="-14" style="clip-path:url(#SVGID_00000182489820124643864200000004250272586753838227_);fill:none;" width="12" height="12"/>
										</g>
									</g>
								</g>
							</g>
							<g>
								<g>
									<g>
										<g>
											<defs>
												<rect id="SVGID_00000074440609691904653100000010571043193086253498_" x="2" y="-14" width="12" height="12"/>
											</defs>
											<clipPath id="SVGID_00000074440772640752983370000009346696905951629718_">
												<use xlink:href="#SVGID_00000074440609691904653100000010571043193086253498_"  style="overflow:visible;"/>
											</clipPath>
											
												<rect x="2" y="-14" style="clip-path:url(#SVGID_00000074440772640752983370000009346696905951629718_);fill:none;" width="12" height="12"/>
										</g>
									</g>
								</g>
							</g>
							<g>
								<g>
									<g>
										<g>
											<defs>
												<rect id="SVGID_00000086683379374712527630000000315771661035192986_" x="2" y="-14" width="12" height="12"/>
											</defs>
											<clipPath id="SVGID_00000160163783416564237650000004362357547810231946_">
												<use xlink:href="#SVGID_00000086683379374712527630000000315771661035192986_"  style="overflow:visible;"/>
											</clipPath>
											
												<circle style="clip-path:url(#SVGID_00000160163783416564237650000004362357547810231946_);fill:#579789;" cx="14" cy="-5" r="2"/>
										</g>
									</g>
								</g>
							</g>
							<g>
								<g>
									<g>
										<g>
											<defs>
												<rect id="SVGID_00000181787686585684229880000017623274002207777923_" x="2" y="-14" width="12" height="12"/>
											</defs>
											<clipPath id="SVGID_00000026868970315078874310000016178606619830809244_">
												<use xlink:href="#SVGID_00000181787686585684229880000017623274002207777923_"  style="overflow:visible;"/>
											</clipPath>
											
												<circle style="clip-path:url(#SVGID_00000026868970315078874310000016178606619830809244_);fill:#579789;" cx="8" cy="-2" r="2"/>
										</g>
									</g>
								</g>
							</g>
							<g>
								<g>
									<g>
										<g>
											<defs>
												<rect id="SVGID_00000170241217194840206360000002593890996596211871_" x="2" y="-14" width="12" height="12"/>
											</defs>
											<clipPath id="SVGID_00000134938814506452417530000013939113936299207558_">
												<use xlink:href="#SVGID_00000170241217194840206360000002593890996596211871_"  style="overflow:visible;"/>
											</clipPath>
											
												<circle style="clip-path:url(#SVGID_00000134938814506452417530000013939113936299207558_);fill:#579789;" cx="2" cy="-5" r="2"/>
										</g>
									</g>
								</g>
							</g>
							<g>
								<g>
									<g>
										<g>
											<defs>
												<rect id="SVGID_00000096045886252838338130000009839074869042083007_" x="2" y="-14" width="12" height="12"/>
											</defs>
											<clipPath id="SVGID_00000157294913295128993640000008373747813642539954_">
												<use xlink:href="#SVGID_00000096045886252838338130000009839074869042083007_"  style="overflow:visible;"/>
											</clipPath>
											
												<circle style="clip-path:url(#SVGID_00000157294913295128993640000008373747813642539954_);fill:#579789;" cx="14" cy="-11" r="2"/>
										</g>
									</g>
								</g>
							</g>
							<g>
								<g>
									<g>
										<g>
											<defs>
												<rect id="SVGID_00000041292217624496881660000010691122946666532484_" x="2" y="-14" width="12" height="12"/>
											</defs>
											<clipPath id="SVGID_00000159436823074536799750000002009312932663579798_">
												<use xlink:href="#SVGID_00000041292217624496881660000010691122946666532484_"  style="overflow:visible;"/>
											</clipPath>
											
												<circle style="clip-path:url(#SVGID_00000159436823074536799750000002009312932663579798_);fill:#579789;" cx="8" cy="-8" r="2"/>
										</g>
									</g>
								</g>
							</g>
							<g>
								<g>
									<g>
										<g>
											<defs>
												<rect id="SVGID_00000005946991527601028260000006913879583583671207_" x="2" y="-14" width="12" height="12"/>
											</defs>
											<clipPath id="SVGID_00000134233404098282453510000010811552083349750169_">
												<use xlink:href="#SVGID_00000005946991527601028260000006913879583583671207_"  style="overflow:visible;"/>
											</clipPath>
											
												<circle style="clip-path:url(#SVGID_00000134233404098282453510000010811552083349750169_);fill:#579789;" cx="2" cy="-11" r="2"/>
										</g>
									</g>
								</g>
							</g>
							<g>
								<g>
									<g>
										<g>
											<defs>
												<rect id="SVGID_00000079477504798096678960000002433728514437178037_" x="2" y="-14" width="12" height="12"/>
											</defs>
											<clipPath id="SVGID_00000050627610995625392930000004805356533667614898_">
												<use xlink:href="#SVGID_00000079477504798096678960000002433728514437178037_"  style="overflow:visible;"/>
											</clipPath>
											
												<circle style="clip-path:url(#SVGID_00000050627610995625392930000004805356533667614898_);fill:#579789;" cx="8" cy="-14" r="2"/>
										</g>
									</g>
								</g>
							</g>
						</g>
					</g>
				</g>
			</g>
		</g>
	</g>
</pattern>
<pattern  y="1200" width="12" height="12" patternUnits="userSpaceOnUse" id="SVGID_0000009677117019840330036" viewBox="2 -14 12 12" style="overflow:visible;">
	<g>
		<rect x="2" y="-14" class="st0" width="12" height="12"/>
		<g>
			<rect x="2" y="-14" class="st0" width="12" height="12"/>
			<g>
				<rect x="2" y="-14" class="st0" width="12" height="12"/>
				<g>
					<rect x="2" y="-14" class="st0" width="12" height="12"/>
					<g>
						<rect x="2" y="-14" class="st0" width="12" height="12"/>
						<g>
							<g>
								<g>
									<g>
										<g>
											<defs>
												<rect id="SVGID_00000035532724359697070820000003738801802574118057_" x="2" y="-14" width="12" height="12"/>
											</defs>
											<clipPath id="SVGID_00000009557854224770809600000007681107262600786599_">
												<use xlink:href="#SVGID_00000035532724359697070820000003738801802574118057_"  style="overflow:visible;"/>
											</clipPath>
											
												<rect x="2" y="-14" style="clip-path:url(#SVGID_00000009557854224770809600000007681107262600786599_);fill:none;" width="12" height="12"/>
										</g>
									</g>
								</g>
							</g>
							<g>
								<g>
									<g>
										<g>
											<defs>
												<rect id="SVGID_00000111871335938906226420000002669154353851774398_" x="2" y="-14" width="12" height="12"/>
											</defs>
											<clipPath id="SVGID_00000021098462426684935560000016757016448990806699_">
												<use xlink:href="#SVGID_00000111871335938906226420000002669154353851774398_"  style="overflow:visible;"/>
											</clipPath>
											
												<rect x="2" y="-14" style="clip-path:url(#SVGID_00000021098462426684935560000016757016448990806699_);fill:none;" width="12" height="12"/>
										</g>
									</g>
								</g>
							</g>
							<g>
								<g>
									<g>
										<g>
											<defs>
												<rect id="SVGID_00000149363815151088227650000013229356916316654983_" x="2" y="-14" width="12" height="12"/>
											</defs>
											<clipPath id="SVGID_00000088825962781269956800000002036425148604390079_">
												<use xlink:href="#SVGID_00000149363815151088227650000013229356916316654983_"  style="overflow:visible;"/>
											</clipPath>
											
												<circle style="clip-path:url(#SVGID_00000088825962781269956800000002036425148604390079_);fill:#579789;" cx="14" cy="-5" r="2"/>
										</g>
									</g>
								</g>
							</g>
							<g>
								<g>
									<g>
										<g>
											<defs>
												<rect id="SVGID_00000024694642415718426740000011189984927566564254_" x="2" y="-14" width="12" height="12"/>
											</defs>
											<clipPath id="SVGID_00000041284574119946250910000012788228790974268599_">
												<use xlink:href="#SVGID_00000024694642415718426740000011189984927566564254_"  style="overflow:visible;"/>
											</clipPath>
											
												<circle style="clip-path:url(#SVGID_00000041284574119946250910000012788228790974268599_);fill:#579789;" cx="8" cy="-2" r="2"/>
										</g>
									</g>
								</g>
							</g>
							<g>
								<g>
									<g>
										<g>
											<defs>
												<rect id="SVGID_00000002363535225439603320000008743483202755212428_" x="2" y="-14" width="12" height="12"/>
											</defs>
											<clipPath id="SVGID_00000025434479924555404110000005170352059839888281_">
												<use xlink:href="#SVGID_00000002363535225439603320000008743483202755212428_"  style="overflow:visible;"/>
											</clipPath>
											
												<circle style="clip-path:url(#SVGID_00000025434479924555404110000005170352059839888281_);fill:#579789;" cx="2" cy="-5" r="2"/>
										</g>
									</g>
								</g>
							</g>
							<g>
								<g>
									<g>
										<g>
											<defs>
												<rect id="SVGID_00000091719186983206949950000018223583031477295538_" x="2" y="-14" width="12" height="12"/>
											</defs>
											<clipPath id="SVGID_00000080913351725617033130000002238326053985471920_">
												<use xlink:href="#SVGID_00000091719186983206949950000018223583031477295538_"  style="overflow:visible;"/>
											</clipPath>
											
												<circle style="clip-path:url(#SVGID_00000080913351725617033130000002238326053985471920_);fill:#579789;" cx="14" cy="-11" r="2"/>
										</g>
									</g>
								</g>
							</g>
							<g>
								<g>
									<g>
										<g>
											<defs>
												<rect id="SVGID_00000039127406019076335410000015290909089690233989_" x="2" y="-14" width="12" height="12"/>
											</defs>
											<clipPath id="SVGID_00000044172034904026431280000005405738146782005650_">
												<use xlink:href="#SVGID_00000039127406019076335410000015290909089690233989_"  style="overflow:visible;"/>
											</clipPath>
											
												<circle style="clip-path:url(#SVGID_00000044172034904026431280000005405738146782005650_);fill:#579789;" cx="8" cy="-8" r="2"/>
										</g>
									</g>
								</g>
							</g>
							<g>
								<g>
									<g>
										<g>
											<defs>
												<rect id="SVGID_00000160170671906907700470000016228559041951031681_" x="2" y="-14" width="12" height="12"/>
											</defs>
											<clipPath id="SVGID_00000124154512654677038650000005439242350437326469_">
												<use xlink:href="#SVGID_00000160170671906907700470000016228559041951031681_"  style="overflow:visible;"/>
											</clipPath>
											
												<circle style="clip-path:url(#SVGID_00000124154512654677038650000005439242350437326469_);fill:#579789;" cx="2" cy="-11" r="2"/>
										</g>
									</g>
								</g>
							</g>
							<g>
								<g>
									<g>
										<g>
											<defs>
												<rect id="SVGID_00000116955133184378273760000017527669666464124080_" x="2" y="-14" width="12" height="12"/>
											</defs>
											<clipPath id="SVGID_00000010273289624362884750000010548000949324978584_">
												<use xlink:href="#SVGID_00000116955133184378273760000017527669666464124080_"  style="overflow:visible;"/>
											</clipPath>
											
												<circle style="clip-path:url(#SVGID_00000010273289624362884750000010548000949324978584_);fill:#579789;" cx="8" cy="-14" r="2"/>
										</g>
									</g>
								</g>
							</g>
						</g>
					</g>
				</g>
			</g>
		</g>
	</g>
</pattern>
<pattern  y="1200" width="12" height="12" patternUnits="userSpaceOnUse" id="SVGID_0000017243072146802124615" viewBox="2 -14 12 12" style="overflow:visible;">
	<g>
		<rect x="2" y="-14" class="st0" width="12" height="12"/>
		<g>
			<rect x="2" y="-14" class="st0" width="12" height="12"/>
			<g>
				<rect x="2" y="-14" class="st0" width="12" height="12"/>
				<g>
					<rect x="2" y="-14" class="st0" width="12" height="12"/>
					<g>
						<rect x="2" y="-14" class="st0" width="12" height="12"/>
						<g>
							<g>
								<g>
									<g>
										<g>
											<defs>
												<rect id="SVGID_00000130622357887045614370000007673629080276466827_" x="2" y="-14" width="12" height="12"/>
											</defs>
											<clipPath id="SVGID_00000172403436041986348270000006393849737716629158_">
												<use xlink:href="#SVGID_00000130622357887045614370000007673629080276466827_"  style="overflow:visible;"/>
											</clipPath>
											
												<rect x="2" y="-14" style="clip-path:url(#SVGID_00000172403436041986348270000006393849737716629158_);fill:none;" width="12" height="12"/>
										</g>
									</g>
								</g>
							</g>
							<g>
								<g>
									<g>
										<g>
											<defs>
												<rect id="SVGID_00000156586871668647097600000010702718114633021609_" x="2" y="-14" width="12" height="12"/>
											</defs>
											<clipPath id="SVGID_00000012444057360618769360000010797023897539017627_">
												<use xlink:href="#SVGID_00000156586871668647097600000010702718114633021609_"  style="overflow:visible;"/>
											</clipPath>
											
												<rect x="2" y="-14" style="clip-path:url(#SVGID_00000012444057360618769360000010797023897539017627_);fill:none;" width="12" height="12"/>
										</g>
									</g>
								</g>
							</g>
							<g>
								<g>
									<g>
										<g>
											<defs>
												<rect id="SVGID_00000024695503725741910940000017097584750620859296_" x="2" y="-14" width="12" height="12"/>
											</defs>
											<clipPath id="SVGID_00000176030664162173012410000014248897628360025747_">
												<use xlink:href="#SVGID_00000024695503725741910940000017097584750620859296_"  style="overflow:visible;"/>
											</clipPath>
											
												<circle style="clip-path:url(#SVGID_00000176030664162173012410000014248897628360025747_);fill:#579789;" cx="14" cy="-5" r="2"/>
										</g>
									</g>
								</g>
							</g>
							<g>
								<g>
									<g>
										<g>
											<defs>
												<rect id="SVGID_00000060009074465870217870000007471882357599627917_" x="2" y="-14" width="12" height="12"/>
											</defs>
											<clipPath id="SVGID_00000106143527381498728770000000372578655999393182_">
												<use xlink:href="#SVGID_00000060009074465870217870000007471882357599627917_"  style="overflow:visible;"/>
											</clipPath>
											
												<circle style="clip-path:url(#SVGID_00000106143527381498728770000000372578655999393182_);fill:#579789;" cx="8" cy="-2" r="2"/>
										</g>
									</g>
								</g>
							</g>
							<g>
								<g>
									<g>
										<g>
											<defs>
												<rect id="SVGID_00000175291086234074137130000010734915604110053811_" x="2" y="-14" width="12" height="12"/>
											</defs>
											<clipPath id="SVGID_00000071522264910469460120000007962979707331389621_">
												<use xlink:href="#SVGID_00000175291086234074137130000010734915604110053811_"  style="overflow:visible;"/>
											</clipPath>
											
												<circle style="clip-path:url(#SVGID_00000071522264910469460120000007962979707331389621_);fill:#579789;" cx="2" cy="-5" r="2"/>
										</g>
									</g>
								</g>
							</g>
							<g>
								<g>
									<g>
										<g>
											<defs>
												<rect id="SVGID_00000109746982772061346210000010156278827375735946_" x="2" y="-14" width="12" height="12"/>
											</defs>
											<clipPath id="SVGID_00000004544141102299034030000005712599621453396633_">
												<use xlink:href="#SVGID_00000109746982772061346210000010156278827375735946_"  style="overflow:visible;"/>
											</clipPath>
											
												<circle style="clip-path:url(#SVGID_00000004544141102299034030000005712599621453396633_);fill:#579789;" cx="14" cy="-11" r="2"/>
										</g>
									</g>
								</g>
							</g>
							<g>
								<g>
									<g>
										<g>
											<defs>
												<rect id="SVGID_00000053539522385861742660000002592131269040165524_" x="2" y="-14" width="12" height="12"/>
											</defs>
											<clipPath id="SVGID_00000158740923231040787430000007188536693258368915_">
												<use xlink:href="#SVGID_00000053539522385861742660000002592131269040165524_"  style="overflow:visible;"/>
											</clipPath>
											
												<circle style="clip-path:url(#SVGID_00000158740923231040787430000007188536693258368915_);fill:#579789;" cx="8" cy="-8" r="2"/>
										</g>
									</g>
								</g>
							</g>
							<g>
								<g>
									<g>
										<g>
											<defs>
												<rect id="SVGID_00000118357189593653139230000001617464978314203556_" x="2" y="-14" width="12" height="12"/>
											</defs>
											<clipPath id="SVGID_00000003816549914641609590000006711502029941978018_">
												<use xlink:href="#SVGID_00000118357189593653139230000001617464978314203556_"  style="overflow:visible;"/>
											</clipPath>
											
												<circle style="clip-path:url(#SVGID_00000003816549914641609590000006711502029941978018_);fill:#579789;" cx="2" cy="-11" r="2"/>
										</g>
									</g>
								</g>
							</g>
							<g>
								<g>
									<g>
										<g>
											<defs>
												<rect id="SVGID_00000176034808273375720220000007820565875514315451_" x="2" y="-14" width="12" height="12"/>
											</defs>
											<clipPath id="SVGID_00000022519943856722689660000009386736417009498546_">
												<use xlink:href="#SVGID_00000176034808273375720220000007820565875514315451_"  style="overflow:visible;"/>
											</clipPath>
											
												<circle style="clip-path:url(#SVGID_00000022519943856722689660000009386736417009498546_);fill:#579789;" cx="8" cy="-14" r="2"/>
										</g>
									</g>
								</g>
							</g>
						</g>
					</g>
				</g>
			</g>
		</g>
	</g>
</pattern>
<rect class="st37" width="1199.4" height="1199.4"/>
<g id="d">
	<path class="st38" d="M911.4,621.8c-5.7-47.3-9.3-95-14.8-139.7c-5.1,4.5-11.9,10.6-17.9,15.9v0.1l0,0
		c-6.3,5.6-11.6,10.3-12.8,11.3c-5.6-6.3-3-18.3,5.5-29.6l0,0c-1.5-5.8-2.5-11.5-1.7-15.2c1.3-6.2,12.5-17.1,21-23.5
		c-10.4-62.1-27.5-115-63.9-147.3c-69-61.5-207.2-49-315.9,3.1C402.2,348.8,323,440.3,293.5,543c-12.3,42.6-16.3,87.2-11.8,131.3
		c2.6-7.7,4.6-14.9,5.5-21c4-30.6,20.1-66.2,45-66.2c36.7,0,50.7,25.5,54.9,46.4h9.7v-16.8h96.8v16.8h78.9v-30.3h20.3v-11.5h-10.3
		v-14.4h99.8v14.4h25.4v11.5h-29.1c8.3,0,15.1,6.8,15.2,15.1l0,0c0,8.4-6.8,15.2-15.2,15.2h66.9v-49H780v49h75.7v13.1h-467v1.3
		c-1.5-0.6-3-1-4.6-1.3H375c-13.6,2.5-22.6,15.5-20.1,29c2.2,11.9,12.6,20.6,24.7,20.5c0.9,0,1.8,0,2.6-0.1
		c-9.6,41.7-28.8,90.6-49.3,117.4l0.9,1.2h39.4l-8.5,32.7c60.9,52,151.1,71.5,253.1,91.8c114.6,22.8,243.8,46.4,292.4-5.8
		C959,881.1,927.1,753.3,911.4,621.8L911.4,621.8z M557.3,474.3c-4.9,0-8.8-3.9-8.8-8.8h17.6C566.1,470.3,562.2,474.3,557.3,474.3
		L557.3,474.3z M738.8,421.7c-34.4,0-62.2-27.9-62.2-62.2s27.8-62.2,62.2-62.2s62.2,27.9,62.2,62.2
		C801,393.9,773.2,421.7,738.8,421.7L738.8,421.7z"/>
	
		<pattern  id="SVGID_00000170261470470860904490000001337818806659444399_" xlink:href="#SVGID_0000007659692356916709909" patternTransform="matrix(1 0 0 1 -8 35224)">
	</pattern>
	<polygon style="fill:url(#SVGID_00000170261470470860904490000001337818806659444399_);" points="291.2,984.7 329.2,984.7 
		373.2,814.7 291.2,814.7 209.2,814.7 253.2,984.7 	"/>
	<path class="st40" d="M331.9,814.7c20.9-26.5,40.5-76.2,50.2-118.6c-0.9,0.1-1.8,0.1-2.6,0.1c-13.8,0.1-25-11.1-25.1-24.9
		c0-11,7.1-20.8,17.7-24"/>
	<path class="st40" d="M387.1,633.5c-4.2-21-18.2-46.4-54.9-46.4c-24.9,0-41,35.6-45,66.2c-3.3,25.3-27.4,66.9-27.4,100.8
		c0,21.7,6.9,42.9,19.5,60.6"/>
	<rect x="329.8" y="633.5" class="st40" width="525.9" height="13.1"/>
	<line class="st40" x1="373.8" y1="984.7" x2="373.8" y2="646.2"/>
	<line class="st40" x1="462.3" y1="984.7" x2="462.3" y2="646.2"/>
	<line class="st40" x1="373.8" y1="682.5" x2="462.3" y2="682.5"/>
	<line class="st40" x1="373.8" y1="961.8" x2="462.3" y2="961.8"/>
	<line class="st40" x1="723.2" y1="984.7" x2="723.2" y2="646.2"/>
	<line class="st40" x1="811.7" y1="984.7" x2="811.7" y2="646.2"/>
	<line class="st40" x1="723.2" y1="682.5" x2="811.7" y2="682.5"/>
	<line class="st40" x1="723.2" y1="961.8" x2="811.7" y2="961.8"/>
	<rect x="396.8" y="616.7" class="st40" width="96.8" height="16.8"/>
	<path class="st41" d="M557.3,414v-9.1c-0.1-30.1-24.5-54.5-54.6-54.6h-2.9c-30.1,0.1-54.5,24.5-54.6,54.6v211.8"/>
	<path d="M586.2,465.4v-22.1c0-16-13-28.9-28.9-28.9l0,0c-15.9,0.1-28.8,13-28.9,28.9v22.1H586.2z"/>
	<path class="st41" d="M566.1,465.5c-0.2,4.9-4.2,8.7-9.1,8.5c-4.6-0.2-8.4-3.9-8.5-8.5"/>
	<path class="st41" d="M572.5,603.2h106c8.4,0,15.2,6.8,15.2,15.1l0,0c0,8.4-6.8,15.2-15.2,15.2h-106"/>
	<line class="st41" x1="674.4" y1="603.2" x2="674.4" y2="633.5"/>
	<line class="st41" x1="578.5" y1="603.2" x2="578.5" y2="633.5"/>
	
		<pattern  id="SVGID_00000028283134257594226610000006677891641230518173_" xlink:href="#SVGID_0000009677117019840330036" patternTransform="matrix(-1 0 0 -1 -91226.0078 -52606.4922)">
	</pattern>
	
		<rect x="592.8" y="591.7" style="fill:url(#SVGID_00000028283134257594226610000006677891641230518173_);" width="114.8" height="11.5"/>
	<rect x="582.4" y="577.3" class="st43" width="99.8" height="14.4"/>
	<rect x="745.4" y="584.5" width="34.6" height="49"/>
	<path class="st43" d="M780,595.5c7.3,0.2,13,6.3,12.8,13.5c-0.2,7-5.8,12.6-12.8,12.8"/>
	
		<pattern  id="SVGID_00000001662651220594689150000003954517286392671638_" xlink:href="#SVGID_0000017243072146802124615" patternTransform="matrix(-1 0 0 -1 -91226.0078 -52606.4922)">
	</pattern>
	
		<rect x="914.5" y="980" style="fill:url(#SVGID_00000001662651220594689150000003954517286392671638_);" width="133.2" height="19.7"/>
	<line class="st43" x1="981.1" y1="980" x2="981.1" y2="399.4"/>
	<path class="st43" d="M981.1,545.5c-33.5-0.1-60.7-27.3-60.8-60.8v-23.6"/>
	<path class="st43" d="M1041.8,399.4v26.1c-0.1,33.5-27.3,60.7-60.8,60.8"/>
	<line class="st43" x1="865.8" y1="509.6" x2="950.7" y2="434.1"/>
	<path class="st45" d="M896.3,482.1c-7.2-8.1-0.9-25.5,14.1-38.9s33.1-17.6,40.3-9.5"/>
	<path class="st45" d="M865.9,509.4c-5.6-6.3-3-18.3,5.5-29.6"/>
	<path class="st45" d="M878.7,498.1c-2.4-2.4-10.9-24.4-9-33.6s25.1-28.4,30.1-28.4s12.5,5.3,12.5,5.3"/>
	<circle class="st43" cx="1041.8" cy="393" r="6.3"/>
	<circle class="st43" cx="738.8" cy="359.5" r="62.2"/>
	<line class="st43" x1="738.8" y1="359.5" x2="738.8" y2="315"/>
	<line class="st43" x1="738.8" y1="359.5" x2="767.5" y2="359.5"/>
	<rect x="151.9" y="315.9" class="st43" width="222.4" height="9.3"/>
	
		<pattern  id="SVGID_00000122712729426585073820000003363385040004457604_" xlink:href="#SVGID_0000009099032402958398829" patternTransform="matrix(-1 0 0 -1 -91226.0078 -52606.4922)">
	</pattern>
	
		<rect x="250.6" y="200.3" style="fill:url(#SVGID_00000122712729426585073820000003363385040004457604_);" width="22.2" height="115.6"/>
	<rect x="231.3" y="214.7" class="st43" width="19.3" height="101.2"/>
	
		<rect x="310.9" y="215.7" transform="matrix(0.8366 -0.5479 0.5479 0.8366 -93.6156 219.2163)" class="st47" width="19.4" height="101.6"/>
	<rect x="272.8" y="231.9" class="st43" width="12" height="83.9"/>
	<rect x="180.3" y="325.1" class="st43" width="11.6" height="11.6"/>
	<rect x="334.4" y="325.1" class="st43" width="11.6" height="11.6"/>
	<path class="st43" d="M299,814.7c-1.8-25.1-1.7-89.2,27.2-139.3"/>
	<path class="st43" d="M209.2,579.3c9.3,6,38.2,71.8,56.2,141.9"/>
	<path class="st40" d="M288.3,646.5c-10.3-15.6-19.1-32.1-26.3-49.4c-4.8-11.5-16.2-60.5-55.1-60.5c-18.4,0-47.5,19.1-47.5,50.4
		c0,17.9,12.4,40.2,24,63.6c12.1-10.5,30.4-9.2,40.9,3c10.5,12.1,9.1,30.4-3,40.9c-5.2,4.5-11.8,7-18.6,7.1
		c12.7,72,37.6,101.5,55.9,113.1"/>
</g>
</svg>
