<?xml version="1.0" encoding="UTF-8"?><svg xmlns="http://www.w3.org/2000/svg" xmlns:xlink="http://www.w3.org/1999/xlink" viewBox="0 0 1200 1200"><defs><style>.f{fill:url(#e);}.g,.h,.i,.j{fill:none;}.k{fill:#fff;}.l{fill:#c9c9c9;}.m{fill:#d3d3d3;}.n{fill:#e0e0e0;}.o{fill:#949494;}.h{stroke:#d3d3d3;}.h,.i{stroke-width:2.91px;}.h,.i,.j{stroke-linecap:round;stroke-linejoin:round;}.i{stroke:#c4c4c4;}.j{stroke:#000;stroke-width:3.06px;}</style><pattern id="e" x="0" y="0" width="12" height="12" patternTransform="translate(-17012.55 2785.81) rotate(-180) scale(1.22 -1.22)" patternUnits="userSpaceOnUse" viewBox="0 0 12 12"><g><rect class="g" width="12" height="12"/><rect class="g" width="12" height="12"/><rect class="g" width="12" height="12"/><rect class="g" width="12" height="12"/><circle class="o" cx="12" cy="3" r="2"/><circle class="o" cx="6" r="2"/><circle class="o" cy="3" r="2"/><circle class="o" cx="12" cy="9" r="2"/><circle class="o" cx="6" cy="6" r="2"/><circle class="o" cy="9" r="2"/><circle class="o" cx="6" cy="12" r="2"/></g></pattern></defs><g id="a"><rect class="k" x="-10.92" y="-13.16" width="1216.52" height="1224.58"/></g><g id="b"><g id="c"><g id="d"><path class="j" d="M1049.18,644.21c-4.77-24.16-28.27-97.11-85.62-97.11-24.55,0-41.99,25.61-41.99,57.63,0,44.29,60.38,77.19,69.72,87.16,14,14.95,22.3,48.92,37.49,57.23"/><path class="j" d="M1047.53,795.52c-5.82,0-21.6-43.66-21.6-79.75,0-42.05,38.34-93.51,43.48-112.07,9.09-32.93,24.06-97.19,69.72-97.19,25.93,0,41.27,28.47,41.27,58.05s-27.76,53.12-52.74,81.42c-24.46,27.74-21.64,51.13-35.25,85.07-13.94,34.67-36.73,64.47-44.88,64.47Z"/><path class="j" d="M1046.97,786.16c-8.45-49.89,45.06-199.16,85.7-240.95"/><path class="j" d="M976.71,582.67c6.85,5.65,41.32,62.17,54.49,102.91"/><polygon class="l" points="1082.92 944.58 1050.13 930.01 1056.59 908.51 1068.66 911.54 1099.22 893.32 1115.96 776.9 1050.57 776.9 1049.68 776.9 984.31 776.9 1016.99 1004.21 1049.68 1004.21 1050.57 1004.21 1083.27 1004.21 1095.29 920.65 1082.92 944.58"/><path class="n" d="M654.45,807.7c-7.11,16.22-17.37,30.86-30.2,43.08-37.63-8.84-73.19-15.9-90.88-16.77-13.17-14.27-36.3-35.92-62.93-58.18-2.45-1.99-4.82-4-7.25-5.99l-.27-.22c-2.45-2.02-4.92-4.04-7.44-6.04l-.2-.15c-15.45-12.41-31.62-24.61-47.41-35.47-3.23-6.68-5.87-12.81-7.64-17.39h0c-1.87,.22-3.75,.33-5.64,.32-8.78-7.69-35.25-78.28-16.95-107.34-4.59-8.35-8.27-21.26-8.27-41.35,0-4.33,.2-8.99,.61-13.88-12.13-5.04-23.75-7.86-34.52-7.86-69.08,0-116.46,44.03-116.46,145.55,0,128.52,50.68,237.19,122.93,318.2h697.57c14.9-22.02,21.11-39.52,21.11-46.42,0-62.7-194.91-129.29-406.18-150.07Zm280.77,127.67l-14.47-32.86,19.25-11.56,6.89,10.37,51.66,10.49-63.33,23.56Z"/><path class="f" d="M99.8,729.8c-7.57,0-9.41-8.26-18.93-8.26-5.93,0-18.35,3.38-18.35,9.16h0l6.25,43.75h34.55l7.19-48.36c-.88,2.73-4.88,3.71-10.71,3.71Z"/><path class="j" d="M497.23,494.34l2.1-2.03c0,103.82,31.8,103.31,31.8,118.4,.02,3.22-.19,6.44-.64,9.63"/><line class="i" x1="158.11" y1="290.58" x2="158.11" y2="195.79"/><line class="i" x1="773.85" y1="290.58" x2="773.85" y2="195.79"/><path class="j" d="M513.22,608.96c-15.29-9.79-31.39-18.26-48.12-25.33"/><path class="j" d="M610.72,688.52c-19.77-20.57-41.2-39.49-64.07-56.56"/><path class="j" d="M435.52,747.98c40.36,30.58,79.15,65.78,97.85,86.03,17.69,.83,53.24,7.93,90.88,16.77,22.97-22.35,40.28-52.84,38.61-89.29-10.15-23.39-29-48.74-52.14-73.01"/><path class="j" d="M464.54,562.67c-.09,9.07,.29,18.13,1.16,27.15"/><path class="j" d="M496.59,496.63c.43,3.3,.64,6.62,.65,9.94,0,32.08-19.85,58.1-44.34,58.1-2.64,0-5.28-.31-7.85-.91"/><path class="j" d="M452.74,638.31c3.45,2.02,7.36,3.12,11.35,3.2,10.45,0,16.6-10.14,16.6-18.35,0-29.55-43.93-54.88-53.72-94.86"/><path class="j" d="M439.93,503.96c15.5-10.49,35.7-27.58,35.7-35.81,0,7.85,20.43,29.18,23.87,30.7,1.52-4.97-6.89-66.27-49.36-66.27-57.8,0-80.72,83.67-80.72,129.65,0,20.08,3.67,33.02,8.26,41.35"/><polygon class="l" points="724.8 734.91 680.69 768.98 687.3 653.91 731.42 619.84 724.8 734.91"/><line class="h" x1="611.84" y1="646.61" x2="676.48" y2="656.59"/><line class="h" x1="710.93" y1="617.79" x2="679.51" y2="656.59"/><line class="h" x1="719.35" y1="621.19" x2="682.07" y2="655.53"/><path class="f" d="M158.11,290.58c-44.26,0-80.14,35.89-80.14,80.15H238.27c0-44.27-35.88-80.15-80.15-80.15h-.01Z"/><path class="f" d="M773.85,290.58c-44.26,0-80.14,35.88-80.14,80.14h160.23c0-44.23-35.85-80.1-80.09-80.14Z"/><line class="i" x1="19.57" y1="776.9" x2="265.21" y2="776.9"/><line class="i" x1="142.39" y1="776.9" x2="142.39" y2="1004.21"/><rect class="i" x="151.05" y="746.35" width="55.94" height="30.55"/><path class="j" d="M428.47,527.24c-5.03,3.92-12.29,3.01-16.2-2.02-3.92-5.03-3.01-12.29,2.02-16.2,3.74-2.91,8.88-3.24,12.96-.83"/><polygon class="m" points="680.69 768.98 665.67 772.68 672.28 657.63 687.3 653.91 680.69 768.98"/><polygon class="j" points="1050.13 930.01 1082.92 944.58 1113.94 884.53 1068.66 911.54 1056.59 908.51 1050.13 930.01"/><path class="j" d="M452.8,638.31c6.12,12.77,10.48,26.3,12.96,40.24-7.34,10.26-47.7,32.69-71.15,32.36-10.25-8.97-44.53-103.5-3.84-117.92,14.68-5.21,43.63,7.86,62,45.32"/><polyline class="i" points="114.01 702.53 103.33 774.46 68.77 774.46 58.5 702.53"/><path class="n" d="M607.84,653.91l-3.75,65.24c4.39-6.45,8.26-19.2,10.15-19.66,2.45-.57,5.66-.44,8.56,4.77,8.4,17.67-.28,47.53-9.85,49.55-1.35,.29-5.23,1.04-11.01,2.09l-.75,13.07,64.44,3.67,6.62-115.07-64.42-3.67Z"/><polygon class="j" points="920.78 902.51 935.22 935.37 998.58 911.82 946.92 901.33 940.02 890.96 920.78 902.51"/><path d="M1055.6,897.79c-7.96-13.87-295.99-102.61-329.18-103.96-62.38-10.57-103.44,23.5-118.55,53.2,58.08,13.05,127.2,32.14,144.8,39.4h4.31c2.45-.13,5.22-.16,8.41-.07,21.91-.26,40.18-.77,50.04-1.36,13.61,5.08,61.36,16.76,109.83,27.75l-4.5-10.25,19.25-11.56,6.89,10.37,51.66,10.49-28.84,10.71c40.47,8.73,73.39,15.12,75.26,14.07,4.83-2.58,14.16-32.66,10.63-38.8Z"/><path class="i" d="M137.62,370.73c2.31,11.32,13.36,18.62,24.67,16.31,8.22-1.68,14.64-8.1,16.31-16.31h-40.99Z"/><path class="i" d="M753.36,370.73c2.31,11.32,13.36,18.62,24.67,16.31,8.22-1.68,14.64-8.1,16.31-16.31h-40.99Z"/><path class="j" d="M400.24,710.61c1.77,4.59,4.42,10.71,7.64,17.39,21.07,14.44,42.81,31.35,62.68,47.93,45.83-4.17,134.77-20.51,142.38-22.13,9.56-2.02,18.25-31.87,9.85-49.55-2.9-5.21-6.12-5.34-8.56-4.77s-8.28,22.09-14.24,23.24-116.06,7.73-125.37,8.15c-1.06-4.98-9.45-36.69-13.52-47.6"/><path d="M803.12,641.48c-59.15,13.45-161.36,122.31-211.86,201.91,36.61,7.73,80.72,18.87,114.18,28.25,50.89-39.6,88.06-102.74,93.57-110.27,13.89,28.29,112.62,143.47,119.86,143.47s19.02-5.14,23.65-13.88c-4.16-24.68-108.04-253.95-139.4-249.47Z"/></g></g></g></svg>